<?xml version="1.0" encoding="iso-8859-1"?>
<!-- Generator: Adobe Illustrator 18.0.0, SVG Export Plug-In . SVG Version: 6.00 Build 0)  -->
<!DOCTYPE svg PUBLIC "-//W3C//DTD SVG 1.1//EN" "http://www.w3.org/Graphics/SVG/1.1/DTD/svg11.dtd">
<svg version="1.1" id="Capa_1" xmlns="http://www.w3.org/2000/svg" xmlns:xlink="http://www.w3.org/1999/xlink" x="0px" y="0px"
	 viewBox="0 0 465.769 465.769" style="enable-background:new 0 0 465.769 465.769;" xml:space="preserve">
<g id="XMLID_1130_">
	<path id="XMLID_1133_" d="M145.015,0H89.858c-5.522,0-10,4.477-10,10v445.769c0,5.523,4.478,10,10,10h55.157
		c5.522,0,10-4.477,10-10V10C155.015,4.477,150.537,0,145.015,0z M135.015,445.769H99.858V20h35.157V445.769z"/>
	<path id="XMLID_1134_" d="M191.512,0c-5.522,0-10,4.477-10,10v445.769c0,5.523,4.478,10,10,10s10-4.477,10-10V10
		C201.512,4.477,197.034,0,191.512,0z"/>
	<path id="XMLID_1137_" d="M314.144,266.432h-58.169l-19.296-33.548l19.296-33.548h58.169c19.882,0,38.316-10.86,51.904-30.581
		c12.809-18.589,19.864-43.125,19.864-69.087s-7.054-50.498-19.864-69.087C352.459,10.86,334.026,0,314.144,0
		c-23.314,0-65.788,18.645-65.788,67.865c0,22.957,13.942,40.939,31.741,40.939c17.799,0,31.741-17.983,31.741-40.939
		c0-18.348-8.91-33.507-21.573-38.859c7.299-5.907,15.47-9.123,23.879-9.123c13.146,0,25.764,7.806,35.531,21.98
		c10.545,15.304,16.353,35.834,16.353,57.806s-5.808,42.501-16.353,57.806c-9.767,14.174-22.385,21.98-35.531,21.98h-47.083
		c1.229-4.29-0.551-9.022-4.594-11.347c-4.759-2.737-10.836-1.098-13.574,3.661l-32.3,56.16c-1.765,3.069-1.765,6.844,0,9.913
		l32.3,56.16c1.84,3.197,5.186,4.986,8.628,4.986c1.681,0,3.385-0.427,4.946-1.325c4.043-2.325,5.822-7.057,4.594-11.347h47.083
		c13.146,0,25.764,7.806,35.531,21.98c10.545,15.304,16.353,35.834,16.353,57.806c0,21.972-5.808,42.501-16.353,57.806
		c-9.767,14.174-22.385,21.98-35.531,21.98c-8.409,0-16.579-3.216-23.879-9.123c12.663-5.352,21.573-20.512,21.573-38.859
		c0-22.957-13.942-40.939-31.741-40.939c-17.799,0-31.741,17.983-31.741,40.939c0,44.498,42.474,67.865,65.788,67.865
		c19.882,0,38.316-10.86,51.904-30.581c12.809-18.589,19.864-43.125,19.864-69.087s-7.054-50.498-19.864-69.087
		C352.459,277.292,334.026,266.432,314.144,266.432z M280.097,88.921c-5.598,0-11.858-9.005-11.858-21.056
		c0-4.14,1.116-21.057,11.858-21.057c5.598,0,11.858,9.005,11.858,21.057C291.955,79.916,285.695,88.921,280.097,88.921z
		 M280.097,376.847c5.598,0,11.858,9.005,11.858,21.056c0,12.052-6.26,21.057-11.858,21.057c-2.434,0-11.858-2.158-11.858-21.057
		C268.239,385.852,274.499,376.847,280.097,376.847z"/>
</g>
<g>
</g>
<g>
</g>
<g>
</g>
<g>
</g>
<g>
</g>
<g>
</g>
<g>
</g>
<g>
</g>
<g>
</g>
<g>
</g>
<g>
</g>
<g>
</g>
<g>
</g>
<g>
</g>
<g>
</g>
</svg>
